<?xml version="1.0" standalone="no"?>
<!DOCTYPE svg PUBLIC "-//W3C//DTD SVG 20010904//EN"
 "http://www.w3.org/TR/2001/REC-SVG-20010904/DTD/svg10.dtd">
<svg version="1.0" xmlns="http://www.w3.org/2000/svg"
 width="512.000000pt" height="512.000000pt" viewBox="0 0 512.000000 512.000000"
 preserveAspectRatio="xMidYMid meet">
<metadata>
Created by potrace 1.11, written by Peter Selinger 2001-2013
</metadata>
<g transform="translate(0.000000,512.000000) scale(0.100000,-0.100000)"
fill="#000000" stroke="none">
<path d="M2365 5114 c-16 -2 -73 -9 -125 -15 -447 -51 -929 -257 -1295 -554
-121 -98 -334 -318 -423 -437 -270 -361 -440 -775 -504 -1228 -17 -125 -17
-515 0 -640 59 -419 207 -804 439 -1138 168 -242 403 -477 644 -644 408 -283
870 -437 1369 -455 546 -19 1073 132 1528 439 245 165 522 444 689 693 234
349 385 777 424 1199 14 156 6 448 -16 591 -61 391 -199 748 -408 1060 -167
249 -444 528 -689 693 -324 218 -689 359 -1083 418 -95 14 -486 27 -550 18z
m595 -244 c952 -169 1705 -902 1894 -1842 70 -348 59 -738 -30 -1068 -163
-600 -544 -1102 -1078 -1419 -504 -300 -1120 -395 -1706 -265 -481 107 -934
381 -1258 759 -304 356 -500 804 -552 1264 -14 123 -13 415 1 533 50 427 228
850 499 1193 81 103 262 284 365 365 286 227 645 395 990 465 192 39 251 44
510 41 195 -3 264 -8 365 -26z"/>
<path d="M1313 3165 c-33 -33 -35 -39 -30 -81 2 -25 13 -54 22 -64 22 -24 75
-40 137 -40 44 0 47 -1 53 -32 22 -101 113 -177 210 -178 94 0 197 84 211 172
l7 38 56 0 c72 0 121 24 143 70 22 45 10 99 -29 130 -25 19 -38 20 -385 20
l-360 0 -35 -35z"/>
<path d="M3028 3179 c-15 -11 -32 -35 -38 -54 -10 -30 -9 -41 7 -73 23 -48 71
-72 144 -72 l56 0 7 -38 c9 -58 58 -119 119 -148 68 -31 120 -31 186 2 58 29
106 91 117 151 6 33 7 33 60 33 123 0 185 72 142 165 -24 53 -37 55 -420 55
-337 -1 -354 -2 -380 -21z"/>
<path d="M1770 1482 c-48 -24 -73 -75 -59 -124 5 -21 21 -46 36 -58 25 -20 35
-20 813 -20 774 0 788 0 813 20 14 11 31 36 37 55 10 30 9 41 -7 73 -37 76 5
72 -843 72 -699 0 -758 -1 -790 -18z"/>
</g>
</svg>
